<?xml version="1.0" encoding="UTF-8"?>
<!DOCTYPE svg PUBLIC "-//W3C//DTD SVG 1.1//EN" "http://www.w3.org/Graphics/SVG/1.1/DTD/svg11.dtd">
<svg xmlns="http://www.w3.org/2000/svg" version="1.1" width="200px" height="200px" style="shape-rendering:geometricPrecision; text-rendering:geometricPrecision; image-rendering:optimizeQuality; fill-rule:evenodd; clip-rule:evenodd" xmlns:xlink="http://www.w3.org/1999/xlink">
<g><path style="opacity:1" fill="#ecf1f7" d="M -0.5,-0.5 C 66.1667,-0.5 132.833,-0.5 199.5,-0.5C 199.5,66.1667 199.5,132.833 199.5,199.5C 132.833,199.5 66.1667,199.5 -0.5,199.5C -0.5,132.833 -0.5,66.1667 -0.5,-0.5 Z"/></g>
<g><path style="opacity:1" fill="#9780b3" d="M 103.5,34.5 C 102.503,34.4701 101.836,34.9701 101.5,36C 96.2196,49.6873 91.553,63.1873 87.5,76.5C 84.7038,77.3068 81.8705,78.3068 79,79.5C 78.5906,81.6951 79.0906,83.6951 80.5,85.5C 79.3127,87.0725 78.3127,88.7392 77.5,90.5C 75.4152,88.3155 74.4152,85.6489 74.5,82.5C 77.2044,76.7331 79.5377,70.7331 81.5,64.5C 83.0108,63.0425 84.0108,61.2092 84.5,59C 87.9147,59.723 90.748,58.5563 93,55.5C 93.3333,49.8333 93.6667,44.1667 94,38.5C 95,36.5 96,34.5 97,32.5C 99.8601,30.9233 102.027,31.5899 103.5,34.5 Z"/></g>
<g><path style="opacity:1" fill="#9e72a2" d="M 103.5,34.5 C 104.73,36.2972 105.396,38.2972 105.5,40.5C 100.616,51.1292 96.2822,62.1292 92.5,73.5C 92.8627,74.1835 93.1961,74.8501 93.5,75.5C 91.4352,75.5172 89.4352,75.8505 87.5,76.5C 91.553,63.1873 96.2196,49.6873 101.5,36C 101.836,34.9701 102.503,34.4701 103.5,34.5 Z"/></g>
<g><path style="opacity:1" fill="#b7567b" d="M 121.5,55.5 C 120.326,56.5137 119.66,57.847 119.5,59.5C 116.412,56.0846 112.745,53.4179 108.5,51.5C 107.548,49.9547 107.215,48.288 107.5,46.5C 113.218,47.8889 117.885,50.8889 121.5,55.5 Z"/></g>
<g><path style="opacity:1" fill="#8c96cd" d="M 81.5,64.5 C 79.5377,70.7331 77.2044,76.7331 74.5,82.5C 70.3768,81.6317 66.3768,82.2984 62.5,84.5C 62.1667,83.8333 61.8333,83.1667 61.5,82.5C 63.6062,79.4585 64.9395,76.1252 65.5,72.5C 68.0254,73.8916 70.1921,73.5582 72,71.5C 73.3061,59.5491 79.4727,51.2157 90.5,46.5C 91.8333,48.1667 91.8333,49.8333 90.5,51.5C 83.6619,54.8862 79.4952,60.2195 78,67.5C 79.0391,66.2899 80.2058,65.2899 81.5,64.5 Z"/></g>
<g><path style="opacity:1" fill="#a7608d" d="M 105.5,40.5 C 105.334,45.5111 105.501,50.5111 106,55.5C 106.717,56.0442 107.217,56.7109 107.5,57.5C 101.5,75.1667 95.5,92.8333 89.5,110.5C 87.4776,108.469 85.8109,106.135 84.5,103.5C 85.6988,99.9014 86.6988,96.2347 87.5,92.5C 89.7224,92.822 91.5557,92.1554 93,90.5C 93.4993,85.5111 93.6659,80.5111 93.5,75.5C 93.1961,74.8501 92.8627,74.1835 92.5,73.5C 96.2822,62.1292 100.616,51.1292 105.5,40.5 Z"/></g>
<g><path style="opacity:1" fill="#cd2842" d="M 127.5,71.5 C 127.811,72.4778 128.478,73.1445 129.5,73.5C 131.042,72.2532 132.542,72.2532 134,73.5C 134.113,75.9739 135.113,77.9739 137,79.5C 137.494,81.1341 137.66,82.8008 137.5,84.5C 133.5,83.5 129.5,82.5 125.5,81.5C 123.781,89.6025 120.447,96.9358 115.5,103.5C 114.475,102.626 113.808,101.459 113.5,100C 115.084,95.7384 116.75,91.5717 118.5,87.5C 119.675,87.719 120.675,87.3857 121.5,86.5C 122.879,82.2297 124.046,77.8964 125,73.5C 125.417,72.244 126.25,71.5774 127.5,71.5 Z"/></g>
<g><path style="opacity:1" fill="#b35078" d="M 107.5,57.5 C 109.974,59.4301 112.64,60.0968 115.5,59.5C 116.129,61.7408 117.129,63.7408 118.5,65.5C 116.092,68.3425 114.426,71.6758 113.5,75.5C 113.863,76.1835 114.196,76.8501 114.5,77.5C 112.135,76.9916 109.801,76.3249 107.5,75.5C 105.94,81.4149 106.273,87.0815 108.5,92.5C 104.274,101.154 100.608,110.154 97.5,119.5C 95.9826,119.489 94.8159,118.823 94,117.5C 92.2765,115.283 90.7765,112.95 89.5,110.5C 95.5,92.8333 101.5,75.1667 107.5,57.5 Z"/></g>
<g><path style="opacity:1" fill="#eaeef5" d="M 93.5,75.5 C 93.6659,80.5111 93.4993,85.5111 93,90.5C 91.5557,92.1554 89.7224,92.822 87.5,92.5C 84.8605,90.5272 82.5272,88.1939 80.5,85.5C 79.0906,83.6951 78.5906,81.6951 79,79.5C 81.8705,78.3068 84.7038,77.3068 87.5,76.5C 89.4352,75.8505 91.4352,75.5172 93.5,75.5 Z"/></g>
<g><path style="opacity:1" fill="#ecf0f5" d="M 114.5,77.5 C 116.896,78.3005 119.229,79.3005 121.5,80.5C 120.093,84.0672 118.093,87.2338 115.5,90C 113.559,91.9028 111.226,92.7361 108.5,92.5C 106.273,87.0815 105.94,81.4149 107.5,75.5C 109.801,76.3249 112.135,76.9916 114.5,77.5 Z"/></g>
<g><path style="opacity:1" fill="#c23757" d="M 121.5,55.5 C 125.173,60.1846 127.173,65.5179 127.5,71.5C 126.25,71.5774 125.417,72.244 125,73.5C 124.046,77.8964 122.879,82.2297 121.5,86.5C 120.675,87.3857 119.675,87.719 118.5,87.5C 116.75,91.5717 115.084,95.7384 113.5,100C 113.808,101.459 114.475,102.626 115.5,103.5C 112.098,109.076 108.098,114.243 103.5,119C 101.435,120.542 99.4346,120.709 97.5,119.5C 100.608,110.154 104.274,101.154 108.5,92.5C 111.226,92.7361 113.559,91.9028 115.5,90C 118.093,87.2338 120.093,84.0672 121.5,80.5C 119.229,79.3005 116.896,78.3005 114.5,77.5C 114.196,76.8501 113.863,76.1835 113.5,75.5C 114.426,71.6758 116.092,68.3425 118.5,65.5C 119.824,66.8499 120.824,66.6833 121.5,65C 120.68,63.1997 120.014,61.3664 119.5,59.5C 119.66,57.847 120.326,56.5137 121.5,55.5 Z"/></g>
<g><path style="opacity:1" fill="#9e73a2" d="M 80.5,85.5 C 82.5272,88.1939 84.8605,90.5272 87.5,92.5C 86.6988,96.2347 85.6988,99.9014 84.5,103.5C 81.4074,99.6528 79.0741,95.3195 77.5,90.5C 78.3127,88.7392 79.3127,87.0725 80.5,85.5 Z"/></g>
<g><path style="opacity:1" fill="#4b5164" d="M 24.5,132.5 C 26.4672,132.261 28.3005,132.594 30,133.5C 32.5355,138.607 34.3688,143.94 35.5,149.5C 32.6034,149.212 29.7701,148.545 27,147.5C 24.9413,147.993 22.9413,148.66 21,149.5C 20.1667,149.167 19.3333,148.833 18.5,148.5C 20.7034,143.221 22.7034,137.887 24.5,132.5 Z"/></g>
<g><path style="opacity:1" fill="#4f5568" d="M 37.5,132.5 C 39.1667,132.5 40.8333,132.5 42.5,132.5C 42.6499,136.161 41.1499,137.161 38,135.5C 37.5172,134.552 37.3505,133.552 37.5,132.5 Z"/></g>
<g><path style="opacity:1" fill="#afb5c0" d="M 59.5,132.5 C 58.1667,132.5 56.8333,132.5 55.5,132.5C 55.5,138.167 55.5,143.833 55.5,149.5C 54.8333,146.5 54.1667,143.5 53.5,140.5C 51.0122,138.612 48.0122,137.945 44.5,138.5C 47.6248,137.521 50.9581,137.187 54.5,137.5C 54.5,135.5 54.5,133.5 54.5,131.5C 56.4147,131.216 58.0813,131.549 59.5,132.5 Z"/></g>
<g><path style="opacity:1" fill="#42495c" d="M 59.5,132.5 C 59.5,138.167 59.5,143.833 59.5,149.5C 58.1667,149.5 56.8333,149.5 55.5,149.5C 55.5,143.833 55.5,138.167 55.5,132.5C 56.8333,132.5 58.1667,132.5 59.5,132.5 Z"/></g>
<g><path style="opacity:1" fill="#575d6f" d="M 63.5,131.5 C 69.0047,134.171 68.6713,135.838 62.5,136.5C 62.366,134.708 62.6993,133.042 63.5,131.5 Z"/></g>
<g><path style="opacity:1" fill="#484e61" d="M 113.5,132.5 C 115.167,132.5 116.833,132.5 118.5,132.5C 118.5,136.833 118.5,141.167 118.5,145.5C 120.167,145.5 121.833,145.5 123.5,145.5C 123.5,141.167 123.5,136.833 123.5,132.5C 125.167,132.5 126.833,132.5 128.5,132.5C 128.666,136.846 128.499,141.179 128,145.5C 126.865,148.859 124.532,150.192 121,149.5C 117.468,150.192 115.135,148.859 114,145.5C 113.501,141.179 113.334,136.846 113.5,132.5 Z"/></g>
<g><path style="opacity:1" fill="#4b5164" d="M 135.5,132.5 C 137.467,132.261 139.301,132.594 141,133.5C 142.84,138.51 144.673,143.51 146.5,148.5C 140.833,147.167 135.167,147.167 129.5,148.5C 131.312,143.061 133.312,137.727 135.5,132.5 Z"/></g>
<g><path style="opacity:1" fill="#4c5265" d="M 151.5,132.5 C 155.544,131.958 159.211,132.791 162.5,135C 161.646,136.022 160.646,136.855 159.5,137.5C 155.255,135.43 152.588,136.597 151.5,141C 151.439,142.711 152.106,144.044 153.5,145C 156.956,144.907 159.956,145.907 162.5,148C 154.276,152.221 148.943,149.887 146.5,141C 147.137,137.537 148.803,134.704 151.5,132.5 Z"/></g>
<g><path style="opacity:1" fill="#474d61" d="M 169.5,132.5 C 171.288,132.215 172.955,132.548 174.5,133.5C 176.5,138.5 178.5,143.5 180.5,148.5C 179.667,148.833 178.833,149.167 178,149.5C 176.161,147.859 173.994,146.859 171.5,146.5C 169.227,148.413 166.561,149.413 163.5,149.5C 165.104,143.689 167.104,138.022 169.5,132.5 Z"/></g>
<g><path style="opacity:1" fill="#4c5266" d="M 99.5,137.5 C 102.4,137.28 105.067,137.946 107.5,139.5C 106.286,141.069 104.619,141.902 102.5,142C 108.141,143.575 108.808,146.241 104.5,150C 101.449,150.857 98.7828,150.19 96.5,148C 97.3333,147.167 98.1667,146.333 99,145.5C 100.049,146.517 101.216,146.684 102.5,146C 97.2648,144.54 96.2648,141.706 99.5,137.5 Z"/></g>
<g><path style="opacity:1" fill="#4d5366" d="M 37.5,137.5 C 39.1667,137.5 40.8333,137.5 42.5,137.5C 42.5,141.5 42.5,145.5 42.5,149.5C 40.8333,149.5 39.1667,149.5 37.5,149.5C 37.5,145.5 37.5,141.5 37.5,137.5 Z"/></g>
<g><path style="opacity:1" fill="#464c60" d="M 44.5,138.5 C 48.0122,137.945 51.0122,138.612 53.5,140.5C 52.2921,141.234 50.9587,141.567 49.5,141.5C 49.5,144.167 49.5,146.833 49.5,149.5C 47.8333,149.5 46.1667,149.5 44.5,149.5C 44.5,145.833 44.5,142.167 44.5,138.5 Z"/></g>
<g><path style="opacity:1" fill="#42495c" d="M 62.5,138.5 C 63.8333,138.5 65.1667,138.5 66.5,138.5C 66.5,142.167 66.5,145.833 66.5,149.5C 65.1667,149.5 63.8333,149.5 62.5,149.5C 62.5,145.833 62.5,142.167 62.5,138.5 Z"/></g>
<g><path style="opacity:1" fill="#464b5f" d="M 75.5,137.5 C 77.7224,137.178 79.5557,137.845 81,139.5C 81.4983,142.817 81.665,146.15 81.5,149.5C 80.1667,149.5 78.8333,149.5 77.5,149.5C 77.6633,147.143 77.4966,144.81 77,142.5C 76,141.167 75,141.167 74,142.5C 73.5034,144.81 73.3367,147.143 73.5,149.5C 72.1667,149.5 70.8333,149.5 69.5,149.5C 69.5,145.833 69.5,142.167 69.5,138.5C 71.7354,138.795 73.7354,138.461 75.5,137.5 Z"/></g>
<g><path style="opacity:1" fill="#4b5164" d="M 87.5,137.5 C 93.2153,137.215 95.882,139.882 95.5,145.5C 92.8127,145.336 90.146,145.503 87.5,146C 89.5,146.333 91.5,146.667 93.5,147C 94.8333,147.667 94.8333,148.333 93.5,149C 85.5117,151.341 82.3451,148.508 84,140.5C 85.1451,139.364 86.3117,138.364 87.5,137.5 Z"/></g>
<g><path style="opacity:1" fill="#d0d6de" d="M 88.5,140.5 C 89.7562,140.461 90.7562,140.961 91.5,142C 90.1667,142.667 88.8333,142.667 87.5,142C 88.056,141.617 88.3893,141.117 88.5,140.5 Z"/></g>
<g><path style="opacity:1" fill="#c3c9d1" d="M 26.5,138.5 C 28.2132,139.635 28.8799,141.302 28.5,143.5C 27.5,143.5 26.5,143.5 25.5,143.5C 25.6287,141.784 25.962,140.117 26.5,138.5 Z"/></g>
<g><path style="opacity:1" fill="#c8ced6" d="M 137.5,138.5 C 139.213,139.635 139.88,141.302 139.5,143.5C 138.5,143.5 137.5,143.5 136.5,143.5C 136.629,141.784 136.962,140.117 137.5,138.5 Z"/></g>
<g><path style="opacity:1" fill="#bac0c9" d="M 171.5,138.5 C 172.931,139.78 173.598,141.447 173.5,143.5C 169.247,143.88 168.58,142.213 171.5,138.5 Z"/></g>
<g><path style="opacity:1" fill="#adb3c4" d="M 110.5,160.5 C 112.665,160.116 114.332,160.783 115.5,162.5C 114.68,164.111 113.346,164.778 111.5,164.5C 111.649,165.552 111.483,166.552 111,167.5C 110.503,165.19 110.337,162.857 110.5,160.5 Z"/></g>
</svg>
